<svg xmlns="http://www.w3.org/2000/svg" width="256.387" height="48.384" viewBox="0 0 257 49"><g fill="#F36F21"><path d="M0 2.723h3.246c1.148 0 2.232 1.295 2.232 2.299v38.203c0 1.085-1.146 2.232-2.232 2.232h-3.246v2.654h9.908v-48.111h-9.908v2.723zM24.896 22.679c6.231-1.399 9.391-4.966 9.391-10.603 0-8.014-5.336-12.076-15.848-12.076h-6.665v2.927h6.603c3.695 0 6.41.61 8.289 1.863 2.234 1.501 3.322 3.902 3.322 7.353 0 3.257-1.127 5.702-3.344 7.263-1.965 1.385-4.795 2.088-8.406 2.088h-6.464v2.86h6.874c9.361 0 13.527 3.18 13.527 10.313 0 8.805-6.945 10.652-12.772 10.652h-7.629v2.792h7.697c11.052 0 17.139-4.726 17.139-13.307 0-3.693-1.156-6.625-3.452-8.713-1.979-1.805-4.758-2.953-8.262-3.412zM49.922 7.307c1.551 0 2.766-1.213 2.766-2.763 0-1.552-1.215-2.765-2.766-2.765-1.549 0-2.766 1.213-2.766 2.765 0 1.55 1.217 2.763 2.766 2.763zM52.485 43.567v-29.165c0-1.656-.286-2.215-1.127-2.215h-8.718v2.79h3.792c1 0 1.889 1.095 1.889 1.957v26.634c0 .973-.917 1.89-1.889 1.89h-3.453v2.654h14.91v-2.654h-3.516c-.935-.001-1.888-.955-1.888-1.891zM94.311 43.497v-42.17c0-1.098-.574-1.327-1.055-1.327h-9.129v2.723h6.023v43.038c.057 1.162.227 2.351 1.123 2.351h8.104v-2.654h-3.173c-.925-.001-1.893-1.008-1.893-1.961zM78.199 11.844c-4.277 0-8.173 1.456-10.961 4.099-3.467 3.282-5.227 8.2-5.227 14.615 0 6.323 1.599 11.065 4.754 14.092 2.541 2.444 6.118 3.733 10.332 3.733 4.252 0 8.111-1.571 11.158-4.544l.032-.026v-3.076l-.167.16c-3.113 3.115-6.562 4.629-10.542 4.629-9.866 0-11.339-9.465-11.339-15.104 0-13.38 7.877-15.377 12.572-15.377 3.875 0 6.662.874 9.321 2.925l.154.116v-3.046l-.038-.028c-2.725-2.101-6.102-3.168-10.049-3.168z"/></g><g fill="#fff"><path d="M138.191 3.477c.244.568-.035 1.352-.748 2.095l-19.098 20.13-.029.025v4.449l24.264-25.089c1.399-1.482 2.911-2.364 4.037-2.364h2.281v-2.723h-14.561v2.723h2.282c.807 0 1.363.267 1.572.754zM116.454 2.723h6.772v-2.723h-16.686v2.723h3.247c1.145 0 2.229 1.295 2.229 2.299v38.203c0 1.085-1.147 2.232-2.229 2.232h-3.247v2.654h16.686v-2.654h-6.772v-42.734zM143.27 42.829l-14.101-21.018-.063-.095-3.008 3.081 13.99 20.852v2.462h9.707v-2.654h-2.425c-1.38 0-3.028-1.056-4.1-2.628zM165.059 43.567v-29.165c0-1.656-.283-2.215-1.123-2.215h-8.718v2.79h3.792c1.001 0 1.891 1.095 1.891 1.957v26.634c0 .973-.92 1.89-1.891 1.89h-3.451v2.654h14.911v-2.654h-3.516c-.94-.001-1.895-.955-1.895-1.891zM162.506 7.307c1.548 0 2.759-1.213 2.759-2.763 0-1.552-1.211-2.765-2.759-2.765-1.559 0-2.77 1.213-2.77 2.765 0 1.55 1.211 2.763 2.77 2.763zM209.832 43.567v-22.73c0-6.137-3.075-8.993-9.678-8.993-5.418 0-10.173 2.728-13.203 5.017l-.033.026v2.762l.137-.104c4.183-2.89 8.041-4.296 11.797-4.296 3.543 0 6.82.819 6.82 6.75v23.458h-6.162v2.654h14.976v-2.654h-2.763c-.936 0-1.891-.954-1.891-1.89zM185.053 14.602c-.068-1.807-.406-2.415-1.331-2.415h-8.171v2.79h3.449c.998 0 1.887 1.095 1.887 1.957v26.634c0 .973-.916 1.89-1.887 1.89h-3.104v2.654h15.316v-2.654h-6.16v-30.856zM253.211 45.457c-.919 0-1.889-1.007-1.889-1.96v-42.17c0-1.099-.576-1.327-1.06-1.327h-9.128v2.723h6.024v43.038c.054 1.162.228 2.351 1.124 2.351h8.104v-2.654h-3.175zM235.208 11.844c-4.276 0-8.174 1.456-10.962 4.099-3.463 3.282-5.225 8.2-5.225 14.615 0 6.323 1.6 11.065 4.754 14.092 2.541 2.444 6.117 3.733 10.338 3.733 4.244 0 8.104-1.571 11.152-4.544l.027-.026v-3.076l-.16.16c-3.113 3.115-6.566 4.629-10.545 4.629-9.867 0-11.341-9.465-11.341-15.104 0-13.38 7.876-15.377 12.573-15.377 3.875 0 6.668.874 9.321 2.925l.151.116v-3.046l-.033-.028c-2.725-2.101-6.106-3.168-10.05-3.168z"/></g></svg>